<svg xmlns="http://www.w3.org/2000/svg" viewBox="0 0 512 512" id="charity">
  <g>
    <g>
      <path fill="#fad6a0" fill-rule="evenodd" d="M270.759,362.479c34.156,7.314,70.324-29.767,42.104-41.368l-107.951-44.378c-11.97-4.921-25.425-4.84-37.667,0l-56.435,22.315-.389,132.5,164.132,14.896c31.854,2.89,184.132-84.402,221.446-104.132-16.885-31.569-66.583-8.444-92.884,.516l-109.939,37.453c-6.447,2.196-12.608,1.613-19.272,.207-43.729-9.227-35.474-7.43-79.204-16.662,8.221-11.399,20.215-12.934,30.1-11.19l45.958,9.843Z"></path>
      <path fill="#ffe0b2" fill-rule="evenodd" d="M270.759,362.479c34.156,7.315,70.324-29.766,42.104-41.368l-107.951-44.378c-11.97-4.921-25.425-4.84-37.667,0l-56.434,22.315-.325,110.783,164.069,14.89c28.543,2.59,153.761-67.221,206.333-95.958-22.302-8.621-57.196,7.056-77.771,14.065l-109.94,37.454c-6.447,2.196-12.608,1.613-19.272,.207-43.729-9.227-35.474-7.43-79.204-16.662,8.221-11.399,20.215-12.934,30.101-11.19l45.958,9.842Z"></path>
      <path fill="#fad6a0" fill-rule="evenodd" d="M270.759,362.479c21.946,4.7,44.719-8.928,50.713-22.349-10.44,10.903-31.513,12.476-63.219,4.722-21.98-5.376-55.997-12.832-63.553,18.975,8.221-11.399,20.215-12.934,30.101-11.19l45.958,9.842Z"></path>
      <path fill="#57c6fd" fill-rule="evenodd" d="M16,448.293H110.533c0-55.331-.112-110.411-.112-165.766H16v165.766Z"></path>
      <rect width="94.447" height="25.404" x="16" y="422.889" fill="#38b4f2"></rect>
    </g>
    <path fill="#e33657" fill-rule="evenodd" d="M381.297,106.721c14.338-28.676,28.676-43.013,57.352-43.013,31.658,0,57.351,25.693,57.351,57.351,0,57.351-57.351,114.703-114.703,172.054-57.351-57.351-114.703-114.703-114.703-172.054,0-31.658,25.693-57.351,57.351-57.351,28.676,0,43.014,14.338,57.351,43.013Z"></path>
    <path fill="#fd5959" fill-rule="evenodd" d="M381.297,106.721c11.103-22.206,22.208-35.812,39.97-40.821,24.01,6.848,41.605,28.962,41.605,55.16,0,57.351-36.002,103.661-81.575,172.054-57.351-57.351-114.703-114.703-114.703-172.054,0-31.658,25.693-57.351,57.351-57.351,28.676,0,43.014,14.338,57.351,43.013Z"></path>
  </g>
  <path fill="#242222" fill-rule="evenodd" d="M468.14,351.774c-50.229,27.528-167.881,92.001-193.127,89.688l-159.59-14.48v-124.377l53.658-21.22c11.179-4.418,23.229-4.427,33.929-.026l107.949,44.383c7.86,3.231,7.513,7.68,6.563,10.748-3.534,11.394-24.75,25.594-45.71,21.101l-45.961-9.838c-.061-.013-.118-.026-.18-.035-14.59-2.576-27.031,2.106-35.023,13.188-.989,1.367-1.218,3.148-.607,4.726,.607,1.582,1.969,2.743,3.631,3.091,22.227,4.69,31.027,6.541,40.048,8.431,8.731,1.82,17.659,3.693,39.151,8.23,6.686,1.411,13.971,2.339,21.919-.369l109.941-37.45c3.108-1.059,6.519-2.303,10.129-3.622,31.309-11.447,60.49-20.2,73.972-3.464-5.473,2.95-12.432,6.761-20.692,11.298h0ZM105.422,443.291H21v-155.761H105.422v155.761h0Zm353.35-121.705c-16.063,1.525-33.41,7.864-47.341,12.959-3.561,1.301-6.919,2.528-9.931,3.552l-109.932,37.454c-5.346,1.82-10.515,1.341-16.626,.048-21.51-4.537-30.443-6.405-39.169-8.238-7.684-1.609-15.202-3.191-30.992-6.519,6.278-4.211,13.478-4.273,19.057-3.293l45.873,9.821c25.299,5.42,52.071-10.85,57.36-27.924,3.082-9.939-1.521-18.525-12.309-22.961l-107.949-44.374c-13.113-5.394-27.814-5.402-41.402-.026l-49.988,19.765v-9.324c0-2.761-2.242-4.998-5.003-4.998H16.002c-2.761,0-5.003,2.237-5.003,4.998v165.766c0,2.761,2.242,4.998,5.003,4.998H110.42c2.761,0,5.003-2.238,5.003-4.998v-11.271l158.68,14.401c.629,.057,1.279,.088,1.978,.088,28.46,0,116.333-46.84,196.86-90.967,10.911-5.983,19.523-10.7,25.4-13.808,1.169-.624,2.049-1.688,2.44-2.963,.391-1.27,.259-2.642-.369-3.816-7.539-14.103-21.563-20.288-41.639-18.371h0ZM323.949,68.708c-28.869,0-52.357,23.488-52.357,52.352,0,54.111,55.157,110.416,109.708,164.984,54.542-54.568,109.699-110.873,109.699-164.984,0-28.864-23.479-52.352-52.348-52.352-24.49,0-37.832,10.159-52.88,40.25-.848,1.693-2.58,2.765-4.471,2.765s-3.631-1.073-4.48-2.765c-15.039-30.091-28.381-40.25-52.871-40.25h0Zm57.351,229.408c1.279,0,2.563-.488,3.53-1.464,57.109-57.109,116.17-116.166,116.17-175.592,0-34.381-27.968-62.353-62.349-62.353-29.049,0-44.33,14.058-57.351,37.305-13.03-23.246-28.311-37.305-57.351-37.305-34.39,0-62.358,27.972-62.358,62.353,0,59.426,59.061,118.482,116.17,175.592,.98,.976,2.26,1.464,3.539,1.464Z"></path>
</svg>
