<svg xmlns="http://www.w3.org/2000/svg" viewBox="0 0 1080 1080" id="clapping-hands">
  <g>
    <path fill="#f90" d="M959.1626,658.03769a333.53361,333.53361,0,0,0,3.90869-47.77636c.61328-70.58594-21.02686-110.57715-48.42383-161.207-17.46338-32.27247-37.25732-68.85157-54.62109-120.32325-13.23389-39.22754-20.15772-72.36425-25.72119-98.99121-8.88721-42.53027-14.251-68.20117-36.48584-73.59277-26.4795-6.419-58.04248,23.3623-72.51856,41.97363-13.56689,17.43945-22.4707,42.27051-25.75,71.80664-6.11267,55.06323,9.32178,104.9336,27.56177,142.5188-70.86939-77.81006-206.68164-222.32593-268.92017-257.69556-14.24756-8.09668-47.61181-27.06054-72.08056-13.40136-6.77393,3.78125-15.898,11.8457-20.89453,28.79394-5.7071,19.3501-.37275,39.83374,19.382,70.51148A257.256,257.256,0,0,0,358.377,223.483c-29.21582-16.48828-51.87549-19.96582-67.34961-10.33594-14.76269,9.18652-18.28271,27.81152-19.60839,34.82617-4.4596,23.60254,4.88024,55.4043,27.79681,94.95557-30.9693-27.0586-60.35931-37.75342-79.46137-28.05616-15.04,7.63379-19.78027,25.44629-21.56445,32.15235-8.02173,30.14087,7.4115,73.80566,45.887,129.96484-1.71923-1.22021-3.45965-2.41064-5.24389-3.53711-12.26563-7.74414-29.062-18.35156-46.16016-13.958-15.50537,3.98535-24.13769,18.35351-26.41357,22.6621-24.8711,47.05957,37.81054,134.4629,94.77441,199.49805,65.7207,75.03418,132.68994,136.85938,199.04834,183.75684,57.02393,40.30176,111.65527,67.80664,162.377,81.752q39.39844,10.83252,75.8501,10.82813c33.32764,0,64.66211-6.80665,93.68506-20.40137,65.72144-30.78418,109.29419-98.67652,135.86426-165.09375,12.28381-28.32715,23.63354-62.68848,29.09949-100.92529C957.79907,666.88144,958.53735,662.35434,959.1626,658.03769Z"></path>
    <path fill="#ffae2c" d="M902.31006,895.02588c-8.01,10.40991-17.52,22.65991-29.34009,34.98-19.54,20.3999-45.35,41.01-80.87,53.88989-14.9,5.40991-52.54993,17.08008-113.91,8.76-80.10986-10.8501-146.12988-48.31006-226.46-111.75C288.87,752.2959,165.04,594.25586,186.42,533.49585a68.45618,68.45618,0,0,1,5.23-11.72c3.44-5.9502,8.71-12.42017,16.67-16.07007,26.02-11.97,60.29,15.55005,65.98,20.23a431.38508,431.38508,0,0,1-24.31-37.15015c-10.77-18.4497-16.84-28.84985-21.71-43.51977-6.08-18.33008-16.08-48.49-.96-70.90015,1.39-2.06982,11.47-16.54,28.42-19.06006,11.52-1.71,20.42,2.97022,35.56,11.2002a187.15469,187.15469,0,0,1,39.1,28.46c-44.51-60.05-40.65-122.1001-16.79-138.27,21.05-14.27,67.43.52,105.74,39.76-29.82-31.97-40.03-69.53-26.27-94.59009,1.74-3.18994,7.44-13.25,18.96-18.56982,21.03-9.7002,50.86,1.73974,110.41,47.77A747.70735,747.70735,0,0,1,627.1,329.70581c32.08,36,79.37,87.72,140.87,150.1499a252.71131,252.71131,0,0,1-21.8999-37.92993c-7.76-16.64014-47.76-102.37988-10.47009-178.57007,3.44006-7.01,30.65-62.59985,71.75-63.90991a37.42812,37.42812,0,0,1,14.47009,1.8c32.29993,11.41992,24.40991,66.84985,51.49,154.37988,6.26,20.23,17.46,56.45,40.28992,99.17993,11.45007,21.4502,19.67,33,32.97009,62.11011,8.43994,18.48,17.43994,38.43994,24.49,65.73a376.77918,376.77918,0,0,1,10.01,68.59009C987.11,787.98584,902.31006,895.02588,902.31006,895.02588Z"></path>
    <path fill="#f90" d="M266.68048 357.76929c-6.22644 3.60229-15.94513 10.51513-22.01184 22.43774-8.16083 16.03809-5.3844 32.634-2.45544 44.70215 12.17633 50.16992 45.16613 96.98682 52.30157 106.96655 35.62024 49.81934 62.641 86.87012 77.96454 107.78711A1390.61949 1390.61949 0 01279.9989 533.80322c-8.18872-10.39966-33.89624-43.55029-51.51959-90.543-6.25244-16.67212-12.13892-36.20434-5.6792-57.06445 1.78119-5.752 8.56268-27.65112 25.70282-31.26684C255.89807 353.3689 262.58636 355.76831 266.68048 357.76929zM343.44556 253.1377c-6.6225 4.21679-17.88092 12.78881-24.43567 27.40649-7.32819 16.34253-5.45935 32.32519-2.45545 44.70215 12.17633 50.16992 45.16614 96.98681 52.30158 106.96655C404.47626 482.03223 431.497 519.083 446.82056 540a1390.615 1390.615 0 01-92.48041-105.85962c-8.18872-10.39966-33.89624-43.55029-51.51959-90.543-6.25244-16.67212-12.13892-36.20434-5.6792-57.06445 1.7948-5.7959 8.07171-24.26782 25.70282-31.26685A39.83035 39.83035 0 01343.44556 253.1377zM446.6095 182.10059c-5.79724 1.10937-25.25379 5.55127-34.89435 22.18335-2.778 4.79272-6.8642 14.26074-4.67066 30.3518 6.2995 46.21143 58.01636 100.279 72.36969 115.74878 24.53479 26.44312 57.0835 66.408 89.04566 123.814A1150.66866 1150.66866 0 01460.24261 353.793c-22.7243-29.1792-42.63678-57.65552-60.071-84.78125-1.931-2.6355-21.33527-30.0127-10.325-58.739 1.88061-4.90674 8.18451-21.35376 25.65747-28.18921C429.69122 176.53345 442.67 180.6731 446.6095 182.10059z"></path>
    <path fill="#f90" d="M872.97,930.006c-19.54,20.3999-45.35,41.01-80.87,53.88989-14.9,5.40991-52.54993,17.08008-113.91,8.76-48.70361-6.604-109.95947-27.22632-226.46-111.75-.00006,0-174.60791-126.68189-256.84521-288.918-5.64856-11.14331-18.10608-35.84131-8.46479-58.49194,6.95417-16.33765,22.583-24.96485,32.68653-29.2439a119.96346,119.96346,0,0,0-5.53846,23.00586c-4.3045,31.28052.45337,90.18579,155.929,233.89355C465.47723,849.867,513.46729,894.22471,595.72192,924.74912c86.98792,32.281,154.83887,28.95654,168.71009,28.11841A380.43006,380.43006,0,0,0,872.97,930.006Z"></path>
    <path fill="none" stroke="#f76f00" stroke-linecap="round" stroke-linejoin="round" stroke-width="6" d="M284.30676,539.59556a115.24541,115.24541,0,0,0-26.07525-22.606c-12.19165-7.698-27.971-17.66113-43.81141-13.5896-14.97692,3.84961-23.086,18.46606-24.5086,21.158-27.61542,52.25317,60.98889,157.999,94.37842,196.12011,41.65173,47.5542,311.93286,356.13721,527.432,255.19532,103.77967-48.61133,153.319-193.36573,165.4712-277.26587a331.51608,331.51608,0,0,0,3.87792-47.37305C982.07251,536.0499,922.47229,501.973,878.18347,370.69c-34.07971-101.02051-26.64062-162.521-60.071-170.6272-26.02-6.30933-57.18677,25.14185-69.44385,40.89941-5.49194,7.06031-20.44141,28.009-25.136,70.29566C715.365,384.82822,746.62231,447.46811,764.432,477.412"></path>
    <path fill="none" stroke="#f76f00" stroke-linecap="round" stroke-linejoin="round" stroke-width="6" d="M372.90533,641.43564c-26.18176-26.60107-171.196-176.06347-150.81658-252.63916,1.69885-6.3833,6.18035-23.22265,20.02368-30.24853,21.67828-11.0022,57.54486,6.51172,93.12744,44.01587"></path>
    <path fill="none" stroke="#f76f00" stroke-linecap="round" stroke-linejoin="round" stroke-width="6" d="M476.00586,569.00962c-30.1745-29.9502-196.23383-196.9419-180.639-279.47949,1.30823-6.92408,4.59955-24.34375,18.24536-32.83619,34.67347-21.5791,101.52063,36.06275,105.73828,39.76661"></path>
    <path fill="none" stroke="#f76f00" stroke-linecap="round" stroke-linejoin="round" stroke-width="6" d="M784.45557 498.28769c-25.094-28.23193-227.23206-254.74267-306.74549-299.92895-13.65045-7.75733-46.14453-26.22315-69.13611-13.39014-13.77716 7.68994-18.41748 23.4231-19.4793 27.0232-11.11622 37.68994 21.51208 80.27075 132.071 207.90527 20.90723 24.13647 38.697 44.49805 51.97632 59.645M596.10918 167.5923q18.93727-48.8707 37.87472-97.7414M613.74087 188.44794q28.69656-25.49683 57.39293-50.994M563.73245 99.78415v54.36869"></path>
  </g>
</svg>
