<svg xmlns="http://www.w3.org/2000/svg" width="48" height="48" aria-hidden="true" data-supported-dps="48x48" data-token-id="277" class="_1v88awfd _1k2lxme8g cnuthtag _1ptbkx66g _1ptbkx619k cnuthtgo" aria-label=""><g display="var(--svgDisplayLight)"><path fill="#56687a" d="M24 1h-.16C11.18 1.04.96 11.38 1 24.08S11.34 47.04 24 47h.16C36.82 46.96 47.04 36.62 47 23.92S36.66.96 24 1"></path><ellipse cx="24" cy="24" fill="#fff" rx="20.93" ry="21"></ellipse><ellipse cx="24" cy="24" fill="#dde7f1" rx="18.93" ry="19"></ellipse><path fill="#fff" d="M40.57 23.46 28.2 19.72 24.51 7.36a.538.538 0 0 0-1 0l-3.72 12.35L7.4 23.4c-.23.06-.38.28-.36.51 0 .22.14.42.35.49l12.4 3.74 3.69 12.36c0 .28.22.5.5.5s.5-.22.5-.5l3.75-12.36 12.38-3.69c.23-.08.36-.31.32-.54 0-.21-.15-.4-.36-.45"></path><path fill="#f5987e" d="M32.33 9.13 21.01 22 24 24l2.99 2 5.98-16.52a.365.365 0 0 0-.15-.42.36.36 0 0 0-.49.07"></path><path fill="#56687a" d="m24 24-2.99-2-5.98 16.51c-.08.17 0 .37.16.45h.02c.15.06.32.02.42-.11l11.36-12.86-2.99-2z"></path><ellipse cx="24" cy="24" fill="#fff" rx="1.99" ry="2"></ellipse></g><g display="var(--svgDisplayDark)"><path fill="#9db3c8" d="M24 1h-.16C11.18 1.04.96 11.38 1 24.08S11.34 47.04 24 47h.16C36.82 46.96 47.04 36.62 47 23.92S36.66.96 24 1"></path><ellipse cx="24" cy="24" fill="#38434f" rx="20.93" ry="21"></ellipse><ellipse cx="24" cy="24" fill="#56687a" rx="18.93" ry="19"></ellipse><path fill="#38434f" d="M40.57 23.46 28.2 19.72 24.51 7.36a.538.538 0 0 0-1 0l-3.72 12.35L7.4 23.4c-.23.06-.38.28-.36.51 0 .22.14.42.35.49l12.4 3.74 3.69 12.36c0 .28.22.5.5.5s.5-.22.5-.5l3.75-12.36 12.38-3.69c.23-.08.36-.31.32-.54 0-.21-.15-.4-.36-.45"></path><path fill="#f5987e" d="M32.33 9.13 21.01 22 24 24l2.99 2 5.98-16.52a.365.365 0 0 0-.15-.42.36.36 0 0 0-.49.07"></path><path fill="#9db3c8" d="m24 24-2.99-2-5.98 16.51c-.08.17 0 .37.16.45h.02c.15.06.32.02.42-.11l11.36-12.86-2.99-2z"></path><ellipse cx="24" cy="24" fill="#fff" rx="1.99" ry="2"></ellipse></g></svg>