<svg xmlns="http://www.w3.org/2000/svg" fill="currentColor" aria-hidden="true" data-supported-dps="24x24" viewBox="0 0 24 24" data-token-id="220" width="24" height="24" class="_1v88awfd cnuthtag _1ptbkx61c _1ptbkx614g" aria-label=""><path d="M3 3v15c0 1.66 1.34 3 3 3h12c1.66 0 3-1.34 3-3V3zm13 1.75a1.25 1.25 0 1 1 0 2.5 1.25 1.25 0 0 1 0-2.5m-8 0a1.25 1.25 0 1 1 0 2.5 1.25 1.25 0 0 1 0-2.5M19 18c0 .55-.45 1-1 1H6c-.55 0-1-.45-1-1V9h14zM7 11h2v2H7zm0 4h2v2H7zm4-4h2v2h-2zm0 4h2v2h-2zm4-4h2v2h-2zm0 4h2v2h-2z"></path></svg>