<svg xmlns="http://www.w3.org/2000/svg" fill="currentColor" aria-hidden="true" data-supported-dps="24x24" viewBox="0 0 24 24" data-token-id="333" width="24" height="24" class="_1v88awfd cnuthtag _1ptbkx61c _1ptbkx614g" aria-label=""><path d="M15 13.25V21H9v-7.75A2.25 2.25 0 0 1 11.25 11h1.5A2.25 2.25 0 0 1 15 13.25m5-.25h-1a2 2 0 0 0-2 2v6h5v-6a2 2 0 0 0-2-2M12 3a3 3 0 1 0 3 3 3 3 0 0 0-3-3m7.5 8A2.5 2.5 0 1 0 17 8.5a2.5 2.5 0 0 0 2.5 2.5M5 13H4a2 2 0 0 0-2 2v6h5v-6a2 2 0 0 0-2-2m-.5-7A2.5 2.5 0 1 0 7 8.5 2.5 2.5 0 0 0 4.5 6"></path></svg>