<svg xmlns="http://www.w3.org/2000/svg" viewBox="0 0 5000 3000" id="linkedin">
  <path fill="#0060b5" d="M4884.72 2037.69c0 74.23-59.94 134.38-133.92 134.38H3690.23c-74 0-133.92-60.15-133.92-134.38V962.31c0-74.22 60-134.38 133.92-134.38H4750.8c74 0 133.92 60.16 133.92 134.38zM115.28 1099H294v642H609.12v150.5H115.28zm741.88 57.63c0 49.37-36.45 89.36-96.41 89.36-56.44 0-92.89-40-92.89-89.36 0-50.56 37.64-89.36 95.25-89.36S856 1106 857.16 1156.59zm-184.6 734.88v-575H851.3v575zm285.69-391.55c0-71.72-2.36-131.68-4.71-183.42h155.21l8.24 80h3.53c23.52-37.63 81.13-92.89 177.54-92.89 117.59 0 205.78 78.79 205.78 248.1v339.81H1325.11V1572.82c0-74.07-25.87-124.63-90.53-124.63-49.4 0-78.79 34.1-91.73 67-4.7 11.76-5.87 28.22-5.87 44.69v331.57H958.25zm831.27 58.79h2.35a777.17 777.17 0 0141.16-69.36l116.4-172.85h215.18l-205.77 232.8L2194 1891.47H1974.13l-139.94-236.34-44.67 56.43v179.91H1610.79V1056.64h178.73zM2332.73 1661c4.71 74.07 78.77 109.36 162.27 109.36 61.14 0 110.51-8.25 158.74-24.7l23.5 121.11c-58.79 24.69-130.5 36.45-208.11 36.45-195.19 0-306.9-112.87-306.9-292.78 0-145.8 90.55-306.89 290.42-306.89 185.8 0 256.35 144.63 256.35 286.9a424.56 424.56 0 01-5.89 70.55zm210.47-122.29c0-43.5-18.81-116.4-101.12-116.4-75.25 0-105.83 69.38-110.53 116.4zm793.64-482.08V1719.8c0 64.66 2.36 132.88 4.71 171.67H3182.8l-7.05-83.49h-3.51c-35.29 63.5-105.84 96.44-179.91 96.44-136.4 0-245.75-116.42-245.75-295.14-1.17-194 119.94-306.89 257.5-306.89 71.72 0 125.81 25.86 151.67 64.66h2.36V1056.64zM3158.11 1559.9c0-9.43 0-22.35-2.36-32.93-10.56-47-49.36-87-104.62-87-82.33 0-123.49 72.9-123.49 163.45 0 97.57 48.23 158.71 122.3 158.71 51.74 0 94.06-35.26 104.65-85.81a232.47 232.47 0 003.52-41.16z"></path>
  <path fill="#fff" d="M3988.43 1156.59c0 49.37-36.44 89.36-96.41 89.36-56.42 0-92.88-40-92.88-89.36 0-50.56 37.62-89.36 95.23-89.36S3987.27 1106 3988.43 1156.59zm-184.59 734.88v-575h178.73v575zM4089.53 1499.92c0-71.72-2.35-131.68-4.69-183.42H4240l8.24 80h3.53c23.51-37.63 81.13-92.89 177.55-92.89 117.58 0 205.76 78.79 205.76 248.1v339.81H4456.4V1572.82c0-74.07-25.89-124.63-90.55-124.63-49.39 0-78.77 34.1-91.71 67-4.7 11.76-5.89 28.22-5.89 44.69v331.57H4089.53z"></path>
</svg>